<svg xmlns="http://www.w3.org/2000/svg" xmlns:xlink="http://www.w3.org/1999/xlink" width="50" zoomAndPan="magnify" viewBox="0 0 37.92 46.079998" height="50" preserveAspectRatio="xMidYMid meet" version="1.2"><defs><clipPath id="9e55678795"><path d="M 0.332031 0 L 37.097656 0 L 37.097656 36.765625 L 0.332031 36.765625 Z M 0.332031 0 "/></clipPath></defs><g id="b31b1291f9"><g clip-rule="nonzero" clip-path="url(#9e55678795)"><path style=" stroke:none;fill-rule:nonzero;fill:#000000;fill-opacity:1;" d="M 29.949219 22.46875 C 28.773438 22.46875 27.664062 22.746094 26.625 23.292969 C 25.585938 23.839844 24.734375 24.601562 24.066406 25.570312 L 14.097656 21.066406 C 14.449219 20.210938 14.628906 19.320312 14.628906 18.394531 C 14.628906 17.46875 14.457031 16.578125 14.105469 15.722656 L 24.0625 11.199219 C 24.222656 11.429688 24.394531 11.652344 24.582031 11.863281 C 24.769531 12.074219 24.964844 12.273438 25.175781 12.460938 C 25.386719 12.648438 25.609375 12.824219 25.839844 12.984375 C 26.070312 13.148438 26.308594 13.296875 26.558594 13.429688 C 26.804688 13.5625 27.0625 13.679688 27.324219 13.78125 C 27.585938 13.886719 27.855469 13.972656 28.125 14.042969 C 28.398438 14.117188 28.675781 14.171875 28.953125 14.210938 C 29.234375 14.25 29.515625 14.269531 29.796875 14.277344 C 30.078125 14.28125 30.359375 14.269531 30.640625 14.242188 C 30.921875 14.214844 31.199219 14.167969 31.472656 14.109375 C 31.75 14.046875 32.019531 13.972656 32.285156 13.878906 C 32.550781 13.785156 32.8125 13.675781 33.066406 13.554688 C 33.316406 13.429688 33.5625 13.292969 33.800781 13.140625 C 34.035156 12.988281 34.265625 12.820312 34.480469 12.640625 C 34.699219 12.460938 34.90625 12.269531 35.097656 12.066406 C 35.292969 11.859375 35.476562 11.644531 35.644531 11.421875 C 35.8125 11.195312 35.96875 10.960938 36.109375 10.714844 C 36.25 10.472656 36.378906 10.222656 36.488281 9.960938 C 36.601562 9.703125 36.695312 9.4375 36.777344 9.167969 C 36.855469 8.898438 36.921875 8.625 36.96875 8.347656 C 37.015625 8.070312 37.046875 7.789062 37.0625 7.507812 C 37.078125 7.226562 37.074219 6.945312 37.054688 6.664062 C 37.039062 6.382812 37 6.101562 36.949219 5.824219 C 36.898438 5.546875 36.832031 5.277344 36.746094 5.007812 C 36.660156 4.738281 36.5625 4.472656 36.445312 4.21875 C 36.332031 3.960938 36.203125 3.710938 36.054688 3.46875 C 35.910156 3.226562 35.753906 2.996094 35.582031 2.769531 C 35.40625 2.546875 35.222656 2.335938 35.023438 2.136719 C 34.828125 1.933594 34.617188 1.746094 34.398438 1.570312 C 34.179688 1.394531 33.949219 1.230469 33.710938 1.082031 C 33.472656 0.933594 33.222656 0.796875 32.96875 0.675781 C 32.714844 0.558594 32.453125 0.453125 32.183594 0.363281 C 31.917969 0.273438 31.644531 0.203125 31.371094 0.144531 C 31.09375 0.0898438 30.816406 0.046875 30.535156 0.0234375 C 30.253906 0 29.972656 -0.00390625 29.691406 0.00390625 C 29.40625 0.0117188 29.128906 0.0390625 28.847656 0.0820312 C 28.570312 0.125 28.296875 0.183594 28.023438 0.257812 C 27.753906 0.335938 27.484375 0.425781 27.226562 0.53125 C 26.964844 0.640625 26.710938 0.761719 26.464844 0.898438 C 26.21875 1.035156 25.980469 1.1875 25.753906 1.351562 C 25.523438 1.515625 25.304688 1.695312 25.097656 1.886719 C 24.890625 2.078125 24.695312 2.28125 24.511719 2.492188 C 24.328125 2.707031 24.160156 2.933594 24 3.167969 C 23.84375 3.398438 23.703125 3.644531 23.574219 3.894531 C 23.445312 4.144531 23.332031 4.402344 23.234375 4.667969 C 23.136719 4.933594 23.054688 5.203125 22.992188 5.476562 C 22.925781 5.75 22.875 6.027344 22.84375 6.304688 C 22.808594 6.585938 22.792969 6.867188 22.792969 7.148438 C 22.800781 7.554688 22.839844 7.957031 22.917969 8.355469 L 12.332031 13.164062 C 11.992188 12.847656 11.628906 12.566406 11.238281 12.320312 C 10.84375 12.074219 10.433594 11.871094 10 11.703125 C 9.570312 11.539062 9.125 11.417969 8.667969 11.335938 C 8.214844 11.257812 7.753906 11.222656 7.292969 11.234375 C 6.828125 11.242188 6.371094 11.296875 5.921875 11.394531 C 5.46875 11.492188 5.03125 11.632812 4.605469 11.816406 C 4.179688 12 3.777344 12.222656 3.398438 12.484375 C 3.015625 12.746094 2.664062 13.042969 2.339844 13.375 C 2.015625 13.703125 1.726562 14.0625 1.472656 14.449219 C 1.214844 14.835938 1 15.242188 0.824219 15.667969 C 0.648438 16.097656 0.519531 16.539062 0.425781 16.992188 C 0.335938 17.445312 0.292969 17.902344 0.292969 18.367188 C 0.289062 18.828125 0.332031 19.289062 0.421875 19.742188 C 0.507812 20.195312 0.640625 20.636719 0.8125 21.066406 C 0.988281 21.496094 1.199219 21.902344 1.453125 22.289062 C 1.707031 22.675781 1.992188 23.035156 2.316406 23.367188 C 2.640625 23.699219 2.992188 23.996094 3.371094 24.261719 C 3.75 24.523438 4.152344 24.75 4.578125 24.933594 C 5 25.121094 5.4375 25.261719 5.890625 25.363281 C 6.339844 25.464844 6.796875 25.519531 7.261719 25.53125 C 7.722656 25.542969 8.183594 25.511719 8.636719 25.433594 C 9.09375 25.355469 9.539062 25.234375 9.972656 25.070312 C 10.402344 24.90625 10.816406 24.703125 11.210938 24.460938 C 11.601562 24.214844 11.96875 23.9375 12.308594 23.621094 L 22.921875 28.414062 C 22.847656 28.8125 22.808594 29.210938 22.800781 29.617188 C 22.800781 30.085938 22.847656 30.550781 22.9375 31.011719 C 23.027344 31.472656 23.164062 31.917969 23.34375 32.351562 C 23.523438 32.785156 23.742188 33.199219 24.003906 33.589844 C 24.265625 33.980469 24.5625 34.339844 24.894531 34.671875 C 25.226562 35.003906 25.585938 35.300781 25.976562 35.5625 C 26.367188 35.824219 26.78125 36.042969 27.214844 36.222656 C 27.648438 36.402344 28.09375 36.539062 28.554688 36.628906 C 29.015625 36.722656 29.480469 36.765625 29.949219 36.765625 C 30.417969 36.765625 30.882812 36.722656 31.34375 36.628906 C 31.804688 36.539062 32.25 36.402344 32.6875 36.222656 C 33.121094 36.042969 33.53125 35.824219 33.921875 35.5625 C 34.3125 35.300781 34.671875 35.003906 35.003906 34.671875 C 35.335938 34.339844 35.632812 33.980469 35.894531 33.589844 C 36.15625 33.199219 36.375 32.789062 36.554688 32.355469 C 36.734375 31.921875 36.871094 31.472656 36.960938 31.011719 C 37.054688 30.550781 37.097656 30.085938 37.097656 29.617188 C 37.097656 29.148438 37.054688 28.683594 36.960938 28.222656 C 36.871094 27.761719 36.734375 27.316406 36.554688 26.882812 C 36.375 26.449219 36.15625 26.035156 35.894531 25.644531 C 35.632812 25.253906 35.335938 24.894531 35.003906 24.5625 C 34.671875 24.230469 34.3125 23.933594 33.921875 23.671875 C 33.53125 23.410156 33.117188 23.191406 32.683594 23.011719 C 32.25 22.832031 31.804688 22.695312 31.34375 22.605469 C 30.882812 22.515625 30.417969 22.46875 29.949219 22.46875 Z M 29.949219 3.0625 C 30.214844 3.0625 30.484375 3.089844 30.746094 3.140625 C 31.007812 3.195312 31.265625 3.273438 31.511719 3.375 C 31.761719 3.476562 31.996094 3.601562 32.21875 3.75 C 32.441406 3.902344 32.648438 4.070312 32.839844 4.257812 C 33.027344 4.449219 33.195312 4.65625 33.347656 4.878906 C 33.496094 5.101562 33.621094 5.335938 33.722656 5.585938 C 33.828125 5.832031 33.90625 6.089844 33.957031 6.351562 C 34.007812 6.613281 34.035156 6.878906 34.035156 7.148438 C 34.035156 7.417969 34.007812 7.683594 33.957031 7.945312 C 33.90625 8.207031 33.828125 8.464844 33.726562 8.710938 C 33.621094 8.960938 33.496094 9.195312 33.347656 9.417969 C 33.199219 9.640625 33.027344 9.847656 32.839844 10.039062 C 32.648438 10.226562 32.445312 10.398438 32.21875 10.546875 C 31.996094 10.695312 31.761719 10.820312 31.515625 10.921875 C 31.265625 11.027344 31.011719 11.105469 30.746094 11.15625 C 30.484375 11.207031 30.21875 11.234375 29.949219 11.234375 C 29.683594 11.234375 29.417969 11.207031 29.152344 11.15625 C 28.890625 11.105469 28.632812 11.027344 28.386719 10.925781 C 28.140625 10.820312 27.902344 10.695312 27.679688 10.546875 C 27.457031 10.398438 27.25 10.226562 27.0625 10.039062 C 26.871094 9.847656 26.703125 9.640625 26.554688 9.417969 C 26.402344 9.195312 26.277344 8.960938 26.175781 8.714844 C 26.074219 8.464844 25.996094 8.210938 25.941406 7.945312 C 25.890625 7.683594 25.863281 7.417969 25.863281 7.148438 C 25.863281 6.882812 25.890625 6.617188 25.941406 6.351562 C 25.996094 6.089844 26.074219 5.835938 26.175781 5.585938 C 26.277344 5.339844 26.40625 5.105469 26.554688 4.878906 C 26.703125 4.65625 26.871094 4.453125 27.0625 4.261719 C 27.25 4.074219 27.457031 3.902344 27.679688 3.753906 C 27.902344 3.605469 28.136719 3.480469 28.386719 3.375 C 28.632812 3.273438 28.890625 3.195312 29.152344 3.144531 C 29.414062 3.089844 29.679688 3.0625 29.949219 3.0625 Z M 7.480469 22.46875 C 7.214844 22.46875 6.949219 22.441406 6.683594 22.390625 C 6.421875 22.339844 6.164062 22.261719 5.917969 22.15625 C 5.667969 22.054688 5.433594 21.929688 5.210938 21.78125 C 4.988281 21.632812 4.78125 21.460938 4.589844 21.273438 C 4.402344 21.082031 4.234375 20.875 4.082031 20.652344 C 3.933594 20.429688 3.808594 20.195312 3.707031 19.949219 C 3.601562 19.699219 3.523438 19.445312 3.472656 19.179688 C 3.421875 18.917969 3.394531 18.652344 3.394531 18.382812 C 3.394531 18.117188 3.421875 17.851562 3.472656 17.585938 C 3.523438 17.324219 3.601562 17.066406 3.703125 16.820312 C 3.808594 16.574219 3.933594 16.335938 4.082031 16.113281 C 4.230469 15.890625 4.402344 15.683594 4.589844 15.496094 C 4.78125 15.304688 4.988281 15.136719 5.210938 14.984375 C 5.433594 14.835938 5.667969 14.710938 5.914062 14.609375 C 6.164062 14.507812 6.417969 14.429688 6.683594 14.375 C 6.945312 14.324219 7.210938 14.296875 7.480469 14.296875 C 7.746094 14.296875 8.011719 14.324219 8.277344 14.375 C 8.539062 14.429688 8.796875 14.503906 9.042969 14.609375 C 9.289062 14.710938 9.527344 14.835938 9.75 14.984375 C 9.972656 15.136719 10.179688 15.304688 10.367188 15.492188 C 10.558594 15.683594 10.726562 15.890625 10.875 16.113281 C 11.027344 16.335938 11.152344 16.570312 11.253906 16.820312 C 11.355469 17.066406 11.433594 17.324219 11.488281 17.585938 C 11.539062 17.847656 11.566406 18.113281 11.566406 18.382812 C 11.566406 18.652344 11.539062 18.917969 11.484375 19.179688 C 11.433594 19.441406 11.355469 19.699219 11.253906 19.945312 C 11.152344 20.191406 11.023438 20.429688 10.875 20.652344 C 10.726562 20.875 10.558594 21.082031 10.367188 21.269531 C 10.179688 21.460938 9.972656 21.628906 9.75 21.777344 C 9.527344 21.925781 9.292969 22.054688 9.042969 22.15625 C 8.796875 22.257812 8.539062 22.335938 8.277344 22.390625 C 8.015625 22.441406 7.75 22.46875 7.480469 22.46875 Z M 29.949219 33.703125 C 29.679688 33.703125 29.414062 33.675781 29.152344 33.625 C 28.886719 33.570312 28.632812 33.492188 28.386719 33.390625 C 28.136719 33.289062 27.902344 33.164062 27.679688 33.011719 C 27.457031 32.863281 27.25 32.695312 27.058594 32.503906 C 26.871094 32.316406 26.699219 32.109375 26.550781 31.886719 C 26.402344 31.664062 26.277344 31.429688 26.171875 31.179688 C 26.070312 30.933594 25.992188 30.675781 25.941406 30.414062 C 25.890625 30.152344 25.863281 29.886719 25.863281 29.617188 C 25.863281 29.347656 25.890625 29.082031 25.941406 28.820312 C 25.992188 28.554688 26.070312 28.300781 26.171875 28.054688 C 26.277344 27.804688 26.402344 27.570312 26.550781 27.347656 C 26.699219 27.125 26.871094 26.917969 27.058594 26.726562 C 27.25 26.539062 27.457031 26.367188 27.679688 26.21875 C 27.902344 26.070312 28.136719 25.945312 28.386719 25.84375 C 28.632812 25.738281 28.886719 25.660156 29.152344 25.609375 C 29.414062 25.558594 29.679688 25.53125 29.949219 25.53125 C 30.214844 25.53125 30.480469 25.558594 30.746094 25.609375 C 31.007812 25.660156 31.265625 25.738281 31.511719 25.84375 C 31.757812 25.945312 31.996094 26.070312 32.21875 26.21875 C 32.441406 26.367188 32.648438 26.539062 32.835938 26.726562 C 33.027344 26.917969 33.195312 27.125 33.34375 27.347656 C 33.496094 27.570312 33.621094 27.804688 33.722656 28.054688 C 33.824219 28.300781 33.902344 28.554688 33.957031 28.820312 C 34.007812 29.082031 34.035156 29.347656 34.035156 29.617188 C 34.035156 29.882812 34.007812 30.148438 33.953125 30.414062 C 33.902344 30.675781 33.824219 30.933594 33.722656 31.179688 C 33.621094 31.425781 33.492188 31.664062 33.34375 31.886719 C 33.195312 32.109375 33.027344 32.316406 32.835938 32.503906 C 32.648438 32.695312 32.441406 32.863281 32.21875 33.011719 C 31.996094 33.160156 31.757812 33.289062 31.511719 33.390625 C 31.265625 33.492188 31.007812 33.570312 30.746094 33.625 C 30.480469 33.675781 30.214844 33.703125 29.949219 33.703125 Z M 29.949219 33.703125 "/></g></g></svg>