<svg xmlns="http://www.w3.org/2000/svg" xmlns:xlink="http://www.w3.org/1999/xlink" width="50" zoomAndPan="magnify" viewBox="0 0 37.92 46.079998" height="50" preserveAspectRatio="xMidYMid meet" version="1.2"><defs><clipPath id="c5db5d00b7"><path d="M 0.332031 0 L 37.097656 0 L 37.097656 36.765625 L 0.332031 36.765625 Z M 0.332031 0 "/></clipPath></defs><g id="cedacb1139"><g clip-rule="nonzero" clip-path="url(#c5db5d00b7)"><path style=" stroke:none;fill-rule:nonzero;fill:#000000;fill-opacity:1;" d="M 18.714844 0 C 18.113281 0 17.511719 0.03125 16.914062 0.0898438 C 16.3125 0.148438 15.71875 0.234375 15.128906 0.351562 C 14.539062 0.46875 13.953125 0.617188 13.378906 0.792969 C 12.800781 0.964844 12.234375 1.167969 11.679688 1.398438 C 11.125 1.628906 10.582031 1.886719 10.050781 2.171875 C 9.519531 2.453125 9.003906 2.761719 8.5 3.097656 C 8 3.433594 7.519531 3.789062 7.054688 4.171875 C 6.585938 4.554688 6.140625 4.957031 5.714844 5.382812 C 5.289062 5.808594 4.886719 6.253906 4.503906 6.722656 C 4.121094 7.1875 3.765625 7.667969 3.429688 8.171875 C 3.09375 8.671875 2.785156 9.1875 2.503906 9.71875 C 2.21875 10.25 1.960938 10.792969 1.730469 11.347656 C 1.5 11.90625 1.296875 12.46875 1.125 13.046875 C 0.949219 13.621094 0.800781 14.207031 0.683594 14.796875 C 0.566406 15.386719 0.480469 15.980469 0.421875 16.582031 C 0.363281 17.179688 0.332031 17.78125 0.332031 18.382812 C 0.332031 18.984375 0.363281 19.585938 0.421875 20.183594 C 0.480469 20.785156 0.566406 21.378906 0.683594 21.96875 C 0.800781 22.558594 0.949219 23.144531 1.125 23.71875 C 1.296875 24.296875 1.5 24.863281 1.730469 25.417969 C 1.960938 25.972656 2.21875 26.519531 2.503906 27.046875 C 2.785156 27.578125 3.09375 28.09375 3.429688 28.597656 C 3.765625 29.097656 4.121094 29.578125 4.503906 30.046875 C 4.886719 30.511719 5.289062 30.957031 5.714844 31.382812 C 6.140625 31.808594 6.585938 32.210938 7.054688 32.59375 C 7.519531 32.976562 8 33.332031 8.5 33.667969 C 9.003906 34.003906 9.519531 34.3125 10.050781 34.59375 C 10.582031 34.878906 11.125 35.136719 11.679688 35.367188 C 12.234375 35.597656 12.800781 35.800781 13.378906 35.972656 C 13.953125 36.148438 14.539062 36.296875 15.128906 36.414062 C 15.71875 36.53125 16.3125 36.617188 16.914062 36.675781 C 17.511719 36.738281 18.113281 36.765625 18.714844 36.765625 C 19.316406 36.765625 19.917969 36.738281 20.515625 36.675781 C 21.117188 36.617188 21.710938 36.53125 22.300781 36.414062 C 22.890625 36.296875 23.476562 36.148438 24.050781 35.972656 C 24.628906 35.800781 25.195312 35.597656 25.75 35.367188 C 26.304688 35.136719 26.847656 34.878906 27.378906 34.59375 C 27.910156 34.3125 28.425781 34.003906 28.929688 33.667969 C 29.429688 33.332031 29.910156 32.976562 30.375 32.59375 C 30.84375 32.210938 31.289062 31.808594 31.714844 31.382812 C 32.140625 30.957031 32.542969 30.511719 32.925781 30.046875 C 33.308594 29.578125 33.664062 29.097656 34 28.597656 C 34.335938 28.09375 34.644531 27.578125 34.925781 27.046875 C 35.210938 26.519531 35.46875 25.972656 35.699219 25.417969 C 35.929688 24.863281 36.132812 24.296875 36.304688 23.71875 C 36.480469 23.144531 36.628906 22.558594 36.746094 21.96875 C 36.863281 21.378906 36.949219 20.785156 37.007812 20.183594 C 37.070312 19.585938 37.097656 18.984375 37.097656 18.382812 C 37.097656 17.78125 37.066406 17.179688 37.007812 16.582031 C 36.949219 15.984375 36.859375 15.386719 36.742188 14.796875 C 36.625 14.207031 36.476562 13.625 36.300781 13.050781 C 36.125 12.472656 35.925781 11.90625 35.691406 11.351562 C 35.460938 10.796875 35.207031 10.25 34.921875 9.722656 C 34.636719 9.191406 34.328125 8.675781 33.992188 8.175781 C 33.660156 7.675781 33.300781 7.191406 32.917969 6.726562 C 32.539062 6.261719 32.132812 5.816406 31.707031 5.390625 C 31.28125 4.964844 30.835938 4.5625 30.371094 4.179688 C 29.90625 3.796875 29.421875 3.4375 28.921875 3.105469 C 28.421875 2.769531 27.90625 2.460938 27.375 2.175781 C 26.847656 1.890625 26.300781 1.636719 25.746094 1.40625 C 25.191406 1.175781 24.625 0.972656 24.050781 0.796875 C 23.472656 0.621094 22.890625 0.472656 22.300781 0.355469 C 21.710938 0.238281 21.113281 0.148438 20.515625 0.0898438 C 19.917969 0.03125 19.316406 0 18.714844 0 Z M 18.714844 33.703125 C 17.710938 33.703125 16.710938 33.605469 15.726562 33.40625 C 14.738281 33.210938 13.78125 32.921875 12.851562 32.535156 C 11.921875 32.152344 11.039062 31.679688 10.203125 31.121094 C 9.367188 30.5625 8.59375 29.925781 7.882812 29.214844 C 7.171875 28.503906 6.535156 27.730469 5.976562 26.894531 C 5.417969 26.058594 4.945312 25.175781 4.5625 24.246094 C 4.175781 23.316406 3.886719 22.359375 3.691406 21.371094 C 3.492188 20.386719 3.394531 19.390625 3.394531 18.382812 C 3.394531 17.378906 3.492188 16.382812 3.691406 15.394531 C 3.886719 14.40625 4.175781 13.449219 4.5625 12.519531 C 4.945312 11.589844 5.417969 10.707031 5.976562 9.871094 C 6.535156 9.035156 7.171875 8.261719 7.882812 7.550781 C 8.59375 6.839844 9.367188 6.203125 10.203125 5.644531 C 11.039062 5.085938 11.921875 4.613281 12.851562 4.230469 C 13.78125 3.84375 14.738281 3.554688 15.726562 3.359375 C 16.710938 3.160156 17.710938 3.0625 18.714844 3.0625 C 19.722656 3.0625 20.71875 3.160156 21.703125 3.359375 C 22.691406 3.554688 23.648438 3.84375 24.578125 4.230469 C 25.507812 4.613281 26.390625 5.085938 27.226562 5.644531 C 28.0625 6.203125 28.835938 6.839844 29.546875 7.550781 C 30.257812 8.261719 30.894531 9.035156 31.453125 9.871094 C 32.011719 10.707031 32.484375 11.589844 32.867188 12.519531 C 33.253906 13.449219 33.542969 14.40625 33.738281 15.394531 C 33.9375 16.382812 34.035156 17.378906 34.035156 18.382812 C 34.03125 19.386719 33.933594 20.382812 33.738281 21.371094 C 33.539062 22.355469 33.25 23.3125 32.863281 24.242188 C 32.476562 25.171875 32.007812 26.054688 31.445312 26.890625 C 30.886719 27.726562 30.253906 28.5 29.542969 29.210938 C 28.832031 29.921875 28.058594 30.554688 27.222656 31.113281 C 26.386719 31.675781 25.503906 32.144531 24.574219 32.53125 C 23.644531 32.917969 22.6875 33.207031 21.703125 33.40625 C 20.714844 33.601562 19.71875 33.699219 18.714844 33.703125 Z M 26.375 18.382812 C 26.375 18.585938 26.335938 18.78125 26.257812 18.96875 C 26.179688 19.15625 26.070312 19.324219 25.925781 19.464844 C 25.78125 19.609375 25.617188 19.71875 25.429688 19.796875 C 25.242188 19.875 25.046875 19.914062 24.84375 19.914062 L 20.246094 19.914062 L 20.246094 24.511719 C 20.246094 24.714844 20.207031 24.910156 20.128906 25.097656 C 20.050781 25.285156 19.941406 25.449219 19.796875 25.59375 C 19.65625 25.738281 19.488281 25.847656 19.300781 25.925781 C 19.113281 26.003906 18.917969 26.042969 18.714844 26.042969 C 18.511719 26.042969 18.316406 26.003906 18.128906 25.925781 C 17.941406 25.847656 17.773438 25.738281 17.632812 25.59375 C 17.488281 25.449219 17.378906 25.285156 17.300781 25.097656 C 17.222656 24.910156 17.183594 24.714844 17.183594 24.511719 L 17.183594 19.914062 L 12.585938 19.914062 C 12.382812 19.914062 12.1875 19.875 12 19.796875 C 11.8125 19.71875 11.648438 19.609375 11.503906 19.464844 C 11.359375 19.324219 11.25 19.15625 11.171875 18.96875 C 11.09375 18.78125 11.054688 18.585938 11.054688 18.382812 C 11.054688 18.179688 11.09375 17.984375 11.171875 17.796875 C 11.25 17.609375 11.359375 17.445312 11.503906 17.300781 C 11.648438 17.15625 11.8125 17.046875 12 16.96875 C 12.1875 16.890625 12.382812 16.851562 12.585938 16.851562 L 17.183594 16.851562 L 17.183594 12.253906 C 17.183594 12.050781 17.222656 11.855469 17.300781 11.667969 C 17.378906 11.480469 17.488281 11.316406 17.632812 11.171875 C 17.773438 11.027344 17.941406 10.917969 18.128906 10.839844 C 18.316406 10.761719 18.511719 10.722656 18.714844 10.722656 C 18.917969 10.722656 19.113281 10.761719 19.300781 10.839844 C 19.488281 10.917969 19.65625 11.027344 19.796875 11.171875 C 19.941406 11.316406 20.050781 11.480469 20.128906 11.667969 C 20.207031 11.855469 20.246094 12.050781 20.246094 12.253906 L 20.246094 16.851562 L 24.84375 16.851562 C 25.046875 16.851562 25.242188 16.890625 25.429688 16.96875 C 25.617188 17.046875 25.78125 17.15625 25.925781 17.300781 C 26.070312 17.445312 26.179688 17.609375 26.257812 17.796875 C 26.335938 17.984375 26.375 18.179688 26.375 18.382812 Z M 26.375 18.382812 "/></g></g></svg>